<svg preserveAspectRatio="none" overflow="visible" style="display: block;" width="24" height="24" viewBox="0 0 24 24" fill="none" xmlns="http://www.w3.org/2000/svg">
<g id="vector">
<path id="Vector" d="M9.4 18.4H14.6M10.4 21.6H13.6" stroke="#145C52" stroke-width="1.7" stroke-linecap="round" stroke-linejoin="round"/>
<path id="Vector_2" d="M12 2.4C10.5457 2.39086 9.12685 2.84819 7.95165 3.70486C6.77646 4.56153 5.90686 5.77239 5.47054 7.15968C5.03421 8.54698 5.05414 10.0376 5.5274 11.4127C6.00066 12.7879 6.90232 13.9751 8.1 14.8V16.4H15.9V14.8C17.0977 13.9751 17.9993 12.7879 18.4726 11.4127C18.9459 10.0376 18.9658 8.54698 18.5295 7.15968C18.0931 5.77239 17.2235 4.56153 16.0483 3.70486C14.8731 2.84819 13.4543 2.39086 12 2.4Z" stroke="#145C52" stroke-width="1.7" stroke-linecap="round" stroke-linejoin="round"/>
</g>
</svg>
